<?xml version="1.0" encoding="utf-8"?>
<!-- Generator: Adobe Illustrator 22.0.1, SVG Export Plug-In . SVG Version: 6.00 Build 0)  -->
<svg version="1.1" id="图层_1" xmlns="http://www.w3.org/2000/svg" xmlns:xlink="http://www.w3.org/1999/xlink" x="0px" y="0px"
	 viewBox="0 0 500 500" style="enable-background:new 0 0 500 500;" xml:space="preserve">
<style type="text/css">
	.st0{fill:#D20012;}
</style>
<g>
	<path class="st0" d="M244.3,195.7l105.3-60.8c0.9-0.5,2-0.5,3,0l58.7,33.1c0.9,0.5,2.1,0.5,3,0l49.9-28.8c1-0.6,1-2,0-2.6
		L410,105.7l0,0l-52.5-30l-49.9-28.5l0,0l-55.9-31.9c-0.9-0.5-2.1-0.5-3,0L87.5,108.5l0,0l-49.2,28.4c-2,1.2-2,4,0,5.2l52.9,30.2h0
		l45,25.7l0,0l57.4,32.8l0,0l54.9,31.3c0.9,0.5,2.1,0.5,3,0l49.9-28.8c1-0.6,1-2,0-2.6l-57.1-32.2
		C243.3,197.8,243.3,196.3,244.3,195.7z M143.1,137.3l105.3-60.8c0.9-0.5,2.1-0.5,3,0l45.3,26.2c1,0.6,1,2,0,2.6l-105.3,60.8
		c-0.9,0.5-2.1,0.5-3,0l-45.3-26.2C142.1,139.3,142.1,137.9,143.1,137.3z"/>
	<path class="st0" d="M23.9,220.8v92.5v50.6c0,1.1,0.6,2.1,1.5,2.6l50.9,29.3l0,0l156.5,90.3c1,0.6,2.2-0.1,2.2-1.3v-49.8v-42.9
		c0-1.1-0.6-2.1-1.5-2.6l-48.6-28c-1-0.6-2.2,0.1-2.2,1.3v31.5c0,1.2-1.2,1.9-2.2,1.3L77.8,336.4c-0.9-0.5-1.5-1.5-1.5-2.6v-72.2
		c0-1.2,1.2-1.9,2.2-1.3l154.2,89c1,0.6,2.2-0.1,2.2-1.3v-56c0-1.1-0.6-2.1-1.5-2.6L26.2,169.8c-1-0.6-2.2,0.1-2.2,1.3V220.8z"/>
	<path class="st0" d="M476.2,224.9v-57.3c0-1.2-1.3-1.9-2.3-1.3L266.6,289.4c-0.9,0.5-1.5,1.5-1.5,2.6v50.7v92.5v49.7
		c0,1.2,1.3,1.9,2.3,1.3l50.1-29.7l0,0L474.8,363c0.9-0.5,1.5-1.5,1.5-2.6v-57.3c0-1.2-1.3-1.9-2.3-1.3l-154.2,91.5
		c-1,0.6-2.3-0.1-2.3-1.3v-69.5c0-1.1,0.6-2,1.5-2.6l155.8-92.5C475.7,226.9,476.2,226,476.2,224.9z"/>
</g>
</svg>
