<svg id="图层_1" data-name="图层 1" xmlns="http://www.w3.org/2000/svg" viewBox="0 0 187.38 195.27"><title>gac_black</title><path d="M97.67,76.88l43.6-25.19a1.25,1.25,0,0,1,1.23,0L166.82,65.4a1.23,1.23,0,0,0,1.23,0l20.69-12a.62.62,0,0,0,0-1.08L166.32,39.59h0L144.57,27.18l-20.69-11.8h0L100.71,2.16a1.23,1.23,0,0,0-1.23,0L32.7,40.75h0L12.34,52.51a1.24,1.24,0,0,0,0,2.15l21.91,12.5h0L52.9,77.8h0L76.69,91.37h0l22.74,13a1.25,1.25,0,0,0,1.23,0l20.68-11.94a.62.62,0,0,0,0-1.08L97.67,78A.62.62,0,0,1,97.67,76.88Zm-41.9-24.2,43.6-25.2a1.27,1.27,0,0,1,1.25,0l18.75,10.85a.62.62,0,0,1,0,1.07L75.76,64.6a1.25,1.25,0,0,1-1.24,0L55.77,53.75A.61.61,0,0,1,55.77,52.68Z" transform="translate(-6.38 -2)"/><path d="M6.38,87.28v59.28A1.24,1.24,0,0,0,7,147.63l21.07,12.16h0L92.9,197.18a.62.62,0,0,0,.93-.53V158.26a1.23,1.23,0,0,0-.62-1.08L73.07,145.56a.62.62,0,0,0-.93.54v13a.62.62,0,0,1-.93.54L28.7,135.15a1.25,1.25,0,0,1-.63-1.08v-29.9a.62.62,0,0,1,.93-.54l63.9,36.86a.62.62,0,0,0,.93-.54V116.74a1.22,1.22,0,0,0-.62-1.07L7.31,66.12a.62.62,0,0,0-.93.53Z" transform="translate(-6.38 -2)"/><path d="M193.76,89V65.2a.62.62,0,0,0-.94-.53l-85.91,51a1.26,1.26,0,0,0-.6,1.07v79.9a.61.61,0,0,0,.93.53L128,184.84h0l65.15-38.67a1.25,1.25,0,0,0,.61-1.07V121.34a.62.62,0,0,0-.94-.53l-63.88,37.92a.62.62,0,0,1-.94-.53V129.4a1.23,1.23,0,0,1,.61-1.06L193.15,90A1.22,1.22,0,0,0,193.76,89Z" transform="translate(-6.38 -2)"/></svg>