<svg id="图层_1" data-name="图层 1" xmlns="http://www.w3.org/2000/svg" viewBox="0 0 182.61 174.6"><title>gachain_black</title><path id="_路径_" data-name="&lt;路径&gt;" d="M112.42,40.28s-16.11-5-28.14-5.57c-18.17-.1-24.07,7.79-31.23,18.91-5.77,8-12.61,18-30.5,26.19,0,0,12.93-12.51,16-43.64,1.09-8,4.3-18,17.43-22.55,0,0,21.91-9.38,46.44,18.74A40.92,40.92,0,0,0,112.42,40.28Z" transform="translate(-7.39 -12.12)"/><path id="_路径_2" data-name="&lt;路径&gt;" d="M187.42,109s-3.93,6.91-14.87,5.3a15.21,15.21,0,0,1-12.46-12.51s-2.58-10.85,2-30.91a81.31,81.31,0,0,1,2.73-9.17s6.59,18,18.63,26.49C183.42,88.16,195,96.55,187.42,109Z" transform="translate(-7.39 -12.12)"/><path id="_路径_3" data-name="&lt;路径&gt;" d="M156.74,88.07s-5.05-17.24-7-25.49c-3.89-13-13.4-16.95-21.7-19.17-5.6-1.89-12.27-3.36-19.74-9.36A71.29,71.29,0,0,1,101,26.53s13.24,8.67,36.73,1.72c4.13-1,16.27-3.39,23.27,7.11,0,0,6.92,9.5-.25,28.37C158.42,70,157.48,81.05,156.74,88.07Z" transform="translate(-7.39 -12.12)"/><path id="_路径_4" data-name="&lt;路径&gt;" d="M30.4,89.67c-9.35,9-2.46,19.13.24,25.4S36.91,129,35.48,142.6c0,0-2.92-11.39-20.4-25,0,0-9.72-8-7.3-18.42,0,0,1.37-9.32,12.23-14.74,6.83-3.57,15.21-7.7,22.88-14.24C42.89,70.19,39.12,81.92,30.4,89.67Z" transform="translate(-7.39 -12.12)"/><path id="_路径_5" data-name="&lt;路径&gt;" d="M35.21,119.07s8.54,7.66,14,24.89c6.38,15.73,18,15,26.78,14.43,7.55-.2,17.36,1,30.82,10.36,0,0-14.38-6.5-37.78,6.85a20.44,20.44,0,0,1-22.92-2.35S34,165.81,38,140.47C38.69,135.73,38.09,127.63,35.21,119.07Z" transform="translate(-7.39 -12.12)"/><path id="_路径_6" data-name="&lt;路径&gt;" d="M92.17,121S72.49,117,73.23,97.71c0,0,1-13.47,14.28-16.57a22.32,22.32,0,0,1,21.74,7.15s7,7.48,14.08,21.67c6.25,12.24,9,22.52,12,32a65.45,65.45,0,0,0-16.14-12.53C111.59,125.22,101.93,123.21,92.17,121Z" transform="translate(-7.39 -12.12)"/><path id="_路径_7" data-name="&lt;路径&gt;" d="M112.9,170.64c11-2.71,11.23-13.27,7.69-22.62a52.09,52.09,0,0,0-17.43-20.84s21.51,4.84,32.69,21.56c4.35,6.52,5.72,11.55,5.81,18.19,0,8.66-4.73,14-9.6,17.45-7,4.47-18.58,2.29-27.1-4.47-9.4-6.57-14.38-6.26-23.39-6.68a59.66,59.66,0,0,1,12.35-2.67C100.68,169.88,108.57,171.71,112.9,170.64Z" transform="translate(-7.39 -12.12)"/></svg>