<?xml version="1.0" standalone="no"?><!DOCTYPE svg PUBLIC "-//W3C//DTD SVG 1.1//EN" "http://www.w3.org/Graphics/SVG/1.1/DTD/svg11.dtd"><svg t="1542335828297" class="icon" style="" viewBox="0 0 1480 1024" version="1.1" xmlns="http://www.w3.org/2000/svg" p-id="1416" xmlns:xlink="http://www.w3.org/1999/xlink" width="289.0625" height="200"><defs><style type="text/css"></style></defs><path d="M113.632 955.744c-24.992 0-45.344-20.512-45.344-45.728l0-591.424 1206.048 0 0 157.248 68.256 0 0-361.888c0-62.976-51.008-113.952-113.888-113.952l-1114.784 0c-62.912 0-113.888 51.04-113.888 113.984l0 796c0 63.2 50.88 114.016 113.632 114.016l887.616 0 0-68.256-887.616 0zM68.256 136.544l0-22.56c0-25.216 20.448-45.728 45.632-45.728l1114.784 0c25.152 0 45.632 20.48 45.632 45.664l0 136.384-1206.048 0 0-113.792z" p-id="1417" fill="#1296db"></path><path d="M1433.664 639.904l-295.904 0 0-91.008-182.048 182.048 182.048 182.048 0-91.008 295.904 0c25.088 0 45.44-20.192 45.44-45.472l0-91.104c0-25.088-20.288-45.472-45.44-45.472z" p-id="1418" fill="#1296db"></path><path d="M186.176 693.856c-20.48 0-37.088 16.608-37.088 37.088s16.608 37.12 37.088 37.12l353.632 0c20.48 0 37.088-16.608 37.088-37.12s-16.608-37.088-37.088-37.088l-353.632 0z" p-id="1419" fill="#1296db"></path></svg>